<?xml version="1.0" encoding="UTF-8" standalone="no"?>
<!-- Created with Inkscape (http://www.inkscape.org/) -->

<svg
   xmlns:dc="http://purl.org/dc/elements/1.1/"
   xmlns:cc="http://creativecommons.org/ns#"
   xmlns:rdf="http://www.w3.org/1999/02/22-rdf-syntax-ns#"
   xmlns:svg="http://www.w3.org/2000/svg"
   xmlns="http://www.w3.org/2000/svg"
   xmlns:xlink="http://www.w3.org/1999/xlink"
   xmlns:sodipodi="http://sodipodi.sourceforge.net/DTD/sodipodi-0.dtd"
   xmlns:inkscape="http://www.inkscape.org/namespaces/inkscape"
   width="744.09448819"
   height="1052.3622047"
   id="svg2"
   version="1.1"
   inkscape:version="0.48.5 r10040"
   sodipodi:docname="section_beam.pdf">
  <defs
     id="defs4">
    <inkscape:path-effect
       is_visible="true"
       id="path-effect9679-4"
       effect="spiro" />
    <marker
       inkscape:stockid="Arrow1Sstart"
       orient="auto"
       refY="0"
       refX="0"
       id="Arrow1Sstart-7"
       style="overflow:visible">
      <path
         id="path5381-95"
         d="M 0,0 5,-5 -12.5,0 5,5 0,0 z"
         style="fill-rule:evenodd;stroke:#000000;stroke-width:1pt"
         transform="matrix(0.2,0,0,0.2,1.2,0)"
         inkscape:connector-curvature="0" />
    </marker>
    <marker
       inkscape:stockid="Arrow1Sstart"
       orient="auto"
       refY="0"
       refX="0"
       id="Arrow1Sstart-8"
       style="overflow:visible">
      <path
         id="path5381-9"
         d="M 0,0 5,-5 -12.5,0 5,5 0,0 z"
         style="fill-rule:evenodd;stroke:#000000;stroke-width:1pt"
         transform="matrix(0.2,0,0,0.2,1.2,0)"
         inkscape:connector-curvature="0" />
    </marker>
    <marker
       inkscape:stockid="Arrow1Sstart"
       orient="auto"
       refY="0"
       refX="0"
       id="Arrow1Sstart-57"
       style="overflow:visible">
      <path
         id="path5381-6"
         d="M 0,0 5,-5 -12.5,0 5,5 0,0 z"
         style="fill-rule:evenodd;stroke:#000000;stroke-width:1pt"
         transform="matrix(0.2,0,0,0.2,1.2,0)"
         inkscape:connector-curvature="0" />
    </marker>
    <marker
       inkscape:stockid="Arrow1MendPLl"
       orient="auto"
       refY="0"
       refX="0"
       id="Arrow1MendPLl"
       style="overflow:visible">
      <path
         id="path7811"
         d="M 0,0 5,-5 -12.5,0 5,5 0,0 z"
         style="stroke-opacity:1;fill-opacity:1;fill-rule:evenodd;stroke:#8e19e8;stroke-width:1pt;fill:#8e19e8"
         transform="matrix(-0.4,0,0,-0.4,-4,0)"
         inkscape:connector-curvature="0" />
    </marker>
    <marker
       inkscape:stockid="DotMqHb"
       orient="auto"
       refY="0"
       refX="0"
       id="DotMqHb"
       style="overflow:visible">
      <path
         id="path7808"
         d="m -2.5,-1 c 0,2.76 -2.24,5 -5,5 -2.76,0 -5,-2.24 -5,-5 0,-2.76 2.24,-5 5,-5 2.76,0 5,2.24 5,5 z"
         style="stroke-opacity:1;fill-opacity:1;fill-rule:evenodd;stroke:#8e19e8;stroke-width:1pt;fill:#8e19e8"
         transform="matrix(0.4,0,0,0.4,2.96,0.4)"
         inkscape:connector-curvature="0" />
    </marker>
    <marker
       inkscape:stockid="Arrow1MendPYN"
       orient="auto"
       refY="0"
       refX="0"
       id="Arrow1MendPYN"
       style="overflow:visible">
      <path
         id="path7805"
         d="M 0,0 5,-5 -12.5,0 5,5 0,0 z"
         style="stroke-opacity:1;fill-opacity:1;fill-rule:evenodd;stroke:#8e19e8;stroke-width:1pt;fill:#8e19e8"
         transform="matrix(-0.4,0,0,-0.4,-4,0)"
         inkscape:connector-curvature="0" />
    </marker>
    <marker
       inkscape:stockid="DotMqKw"
       orient="auto"
       refY="0"
       refX="0"
       id="DotMqKw"
       style="overflow:visible">
      <path
         id="path7802"
         d="m -2.5,-1 c 0,2.76 -2.24,5 -5,5 -2.76,0 -5,-2.24 -5,-5 0,-2.76 2.24,-5 5,-5 2.76,0 5,2.24 5,5 z"
         style="stroke-opacity:1;fill-opacity:1;fill-rule:evenodd;stroke:#8e19e8;stroke-width:1pt;fill:#8e19e8"
         transform="matrix(0.4,0,0,0.4,2.96,0.4)"
         inkscape:connector-curvature="0" />
    </marker>
    <marker
       inkscape:stockid="Arrow1MendPL"
       orient="auto"
       refY="0"
       refX="0"
       id="Arrow1MendPL-2"
       style="overflow:visible">
      <path
         id="path4957-1"
         d="M 0,0 5,-5 -12.5,0 5,5 0,0 z"
         style="fill:#195de8;fill-opacity:1;fill-rule:evenodd;stroke:#195de8;stroke-width:1pt;stroke-opacity:1"
         transform="matrix(-0.4,0,0,-0.4,-4,0)"
         inkscape:connector-curvature="0" />
    </marker>
    <marker
       inkscape:stockid="DotMqH"
       orient="auto"
       refY="0"
       refX="0"
       id="DotMqH-3"
       style="overflow:visible">
      <path
         id="path4954-2"
         d="m -2.5,-1 c 0,2.76 -2.24,5 -5,5 -2.76,0 -5,-2.24 -5,-5 0,-2.76 2.24,-5 5,-5 2.76,0 5,2.24 5,5 z"
         style="fill:#195de8;fill-opacity:1;fill-rule:evenodd;stroke:#195de8;stroke-width:1pt;stroke-opacity:1"
         transform="matrix(0.4,0,0,0.4,2.96,0.4)"
         inkscape:connector-curvature="0" />
    </marker>
    <marker
       inkscape:stockid="Arrow1MendPY"
       orient="auto"
       refY="0"
       refX="0"
       id="Arrow1MendPY-4"
       style="overflow:visible">
      <path
         id="path4963-2"
         d="M 0,0 5,-5 -12.5,0 5,5 0,0 z"
         style="fill:#195de8;fill-opacity:1;fill-rule:evenodd;stroke:#195de8;stroke-width:1pt;stroke-opacity:1"
         transform="matrix(-0.4,0,0,-0.4,-4,0)"
         inkscape:connector-curvature="0" />
    </marker>
    <marker
       inkscape:stockid="DotMqK"
       orient="auto"
       refY="0"
       refX="0"
       id="DotMqK-6"
       style="overflow:visible">
      <path
         id="path4960-1"
         d="m -2.5,-1 c 0,2.76 -2.24,5 -5,5 -2.76,0 -5,-2.24 -5,-5 0,-2.76 2.24,-5 5,-5 2.76,0 5,2.24 5,5 z"
         style="fill:#195de8;fill-opacity:1;fill-rule:evenodd;stroke:#195de8;stroke-width:1pt;stroke-opacity:1"
         transform="matrix(0.4,0,0,0.4,2.96,0.4)"
         inkscape:connector-curvature="0" />
    </marker>
    <marker
       inkscape:stockid="Arrow1Sstart"
       orient="auto"
       refY="0"
       refX="0"
       id="Arrow1Sstart-1"
       style="overflow:visible">
      <path
         inkscape:connector-curvature="0"
         id="path5381-15"
         d="M 0,0 5,-5 -12.5,0 5,5 0,0 z"
         style="fill-rule:evenodd;stroke:#000000;stroke-width:1pt"
         transform="matrix(0.2,0,0,0.2,1.2,0)" />
    </marker>
    <marker
       inkscape:stockid="Arrow1Sstart"
       orient="auto"
       refY="0"
       refX="0"
       id="Arrow1Sstart-5"
       style="overflow:visible">
      <path
         inkscape:connector-curvature="0"
         id="path5381-1"
         d="M 0,0 5,-5 -12.5,0 5,5 0,0 z"
         style="fill-rule:evenodd;stroke:#000000;stroke-width:1pt"
         transform="matrix(0.2,0,0,0.2,1.2,0)" />
    </marker>
    <marker
       inkscape:stockid="Arrow1MendPY"
       orient="auto"
       refY="0"
       refX="0"
       id="Arrow1MendPY"
       style="overflow:visible">
      <path
         id="path4963"
         d="M 0,0 5,-5 -12.5,0 5,5 0,0 z"
         style="stroke-opacity:1;fill-rule:evenodd;fill-opacity:1;stroke:#195de8;stroke-width:1pt;fill:#195de8"
         transform="matrix(-0.4,0,0,-0.4,-4,0)"
         inkscape:connector-curvature="0" />
    </marker>
    <marker
       inkscape:stockid="DotMqK"
       orient="auto"
       refY="0"
       refX="0"
       id="DotMqK"
       style="overflow:visible">
      <path
         id="path4960"
         d="m -2.5,-1 c 0,2.76 -2.24,5 -5,5 -2.76,0 -5,-2.24 -5,-5 0,-2.76 2.24,-5 5,-5 2.76,0 5,2.24 5,5 z"
         style="stroke-opacity:1;fill-rule:evenodd;fill-opacity:1;stroke:#195de8;stroke-width:1pt;fill:#195de8"
         transform="matrix(0.4,0,0,0.4,2.96,0.4)"
         inkscape:connector-curvature="0" />
    </marker>
    <marker
       inkscape:stockid="Arrow1MendPL"
       orient="auto"
       refY="0"
       refX="0"
       id="Arrow1MendPL"
       style="overflow:visible">
      <path
         id="path4957"
         d="M 0,0 5,-5 -12.5,0 5,5 0,0 z"
         style="stroke-opacity:1;fill-rule:evenodd;fill-opacity:1;stroke:#195de8;stroke-width:1pt;fill:#195de8"
         transform="matrix(-0.4,0,0,-0.4,-4,0)"
         inkscape:connector-curvature="0" />
    </marker>
    <marker
       inkscape:stockid="DotMqH"
       orient="auto"
       refY="0"
       refX="0"
       id="DotMqH"
       style="overflow:visible">
      <path
         id="path4954"
         d="m -2.5,-1 c 0,2.76 -2.24,5 -5,5 -2.76,0 -5,-2.24 -5,-5 0,-2.76 2.24,-5 5,-5 2.76,0 5,2.24 5,5 z"
         style="stroke-opacity:1;fill-rule:evenodd;fill-opacity:1;stroke:#195de8;stroke-width:1pt;fill:#195de8"
         transform="matrix(0.4,0,0,0.4,2.96,0.4)"
         inkscape:connector-curvature="0" />
    </marker>
    <marker
       inkscape:stockid="Arrow1MendP"
       orient="auto"
       refY="0"
       refX="0"
       id="Arrow1MendP-8"
       style="overflow:visible">
      <path
         id="path7446-2"
         d="M 0,0 5,-5 -12.5,0 5,5 0,0 z"
         style="fill:#ff021f;fill-opacity:1;fill-rule:evenodd;stroke:#ff021f;stroke-width:1pt;stroke-opacity:1"
         transform="matrix(-0.4,0,0,-0.4,-4,0)"
         inkscape:connector-curvature="0" />
    </marker>
    <marker
       inkscape:stockid="DotMq"
       orient="auto"
       refY="0"
       refX="0"
       id="DotMq-4"
       style="overflow:visible">
      <path
         id="path7443-8"
         d="m -2.5,-1 c 0,2.76 -2.24,5 -5,5 -2.76,0 -5,-2.24 -5,-5 0,-2.76 2.24,-5 5,-5 2.76,0 5,2.24 5,5 z"
         style="fill:#ff021f;fill-opacity:1;fill-rule:evenodd;stroke:#ff021f;stroke-width:1pt;stroke-opacity:1"
         transform="matrix(0.4,0,0,0.4,2.96,0.4)"
         inkscape:connector-curvature="0" />
    </marker>
    <marker
       inkscape:stockid="Arrow1MendP"
       orient="auto"
       refY="0"
       refX="0"
       id="Arrow1MendP-4"
       style="overflow:visible">
      <path
         id="path7446-0"
         d="M 0,0 5,-5 -12.5,0 5,5 0,0 z"
         style="fill:#ff021f;fill-opacity:1;fill-rule:evenodd;stroke:#ff021f;stroke-width:1pt;stroke-opacity:1"
         transform="matrix(-0.4,0,0,-0.4,-4,0)"
         inkscape:connector-curvature="0" />
    </marker>
    <marker
       inkscape:stockid="DotMq"
       orient="auto"
       refY="0"
       refX="0"
       id="DotMq-1"
       style="overflow:visible">
      <path
         id="path7443-7"
         d="m -2.5,-1 c 0,2.76 -2.24,5 -5,5 -2.76,0 -5,-2.24 -5,-5 0,-2.76 2.24,-5 5,-5 2.76,0 5,2.24 5,5 z"
         style="fill:#ff021f;fill-opacity:1;fill-rule:evenodd;stroke:#ff021f;stroke-width:1pt;stroke-opacity:1"
         transform="matrix(0.4,0,0,0.4,2.96,0.4)"
         inkscape:connector-curvature="0" />
    </marker>
    <marker
       inkscape:stockid="Arrow1Mendj"
       orient="auto"
       refY="0"
       refX="0"
       id="Arrow1Mendj"
       style="overflow:visible">
      <path
         id="path12767"
         d="M 0,0 5,-5 -12.5,0 5,5 0,0 z"
         style="fill:#3f8aad;fill-opacity:1;fill-rule:evenodd;stroke:#3f8aad;stroke-width:1pt;stroke-opacity:1"
         transform="matrix(-0.4,0,0,-0.4,-4,0)"
         inkscape:connector-curvature="0" />
    </marker>
    <marker
       inkscape:stockid="DotMj"
       orient="auto"
       refY="0"
       refX="0"
       id="DotMj"
       style="overflow:visible">
      <path
         id="path12764"
         d="m -2.5,-1 c 0,2.76 -2.24,5 -5,5 -2.76,0 -5,-2.24 -5,-5 0,-2.76 2.24,-5 5,-5 2.76,0 5,2.24 5,5 z"
         style="fill:#3f8aad;fill-opacity:1;fill-rule:evenodd;stroke:#3f8aad;stroke-width:1pt;stroke-opacity:1"
         transform="matrix(0.4,0,0,0.4,2.96,0.4)"
         inkscape:connector-curvature="0" />
    </marker>
    <marker
       inkscape:stockid="Arrow1MendI"
       orient="auto"
       refY="0"
       refX="0"
       id="Arrow1MendI"
       style="overflow:visible">
      <path
         id="path12761"
         d="M 0,0 5,-5 -12.5,0 5,5 0,0 z"
         style="fill:#3f8aad;fill-opacity:1;fill-rule:evenodd;stroke:#3f8aad;stroke-width:1pt;stroke-opacity:1"
         transform="matrix(-0.4,0,0,-0.4,-4,0)"
         inkscape:connector-curvature="0" />
    </marker>
    <marker
       inkscape:stockid="DotMI"
       orient="auto"
       refY="0"
       refX="0"
       id="DotMI"
       style="overflow:visible">
      <path
         id="path12758"
         d="m -2.5,-1 c 0,2.76 -2.24,5 -5,5 -2.76,0 -5,-2.24 -5,-5 0,-2.76 2.24,-5 5,-5 2.76,0 5,2.24 5,5 z"
         style="fill:#3f8aad;fill-opacity:1;fill-rule:evenodd;stroke:#3f8aad;stroke-width:1pt;stroke-opacity:1"
         transform="matrix(0.4,0,0,0.4,2.96,0.4)"
         inkscape:connector-curvature="0" />
    </marker>
    <marker
       inkscape:stockid="Arrow1Mendw"
       orient="auto"
       refY="0"
       refX="0"
       id="Arrow1Mendw"
       style="overflow:visible">
      <path
         id="path12755"
         d="M 0,0 5,-5 -12.5,0 5,5 0,0 z"
         style="fill:#3f8aad;fill-opacity:1;fill-rule:evenodd;stroke:#3f8aad;stroke-width:1pt;stroke-opacity:1"
         transform="matrix(-0.4,0,0,-0.4,-4,0)"
         inkscape:connector-curvature="0" />
    </marker>
    <marker
       inkscape:stockid="DotMU"
       orient="auto"
       refY="0"
       refX="0"
       id="DotMU"
       style="overflow:visible">
      <path
         id="path12752"
         d="m -2.5,-1 c 0,2.76 -2.24,5 -5,5 -2.76,0 -5,-2.24 -5,-5 0,-2.76 2.24,-5 5,-5 2.76,0 5,2.24 5,5 z"
         style="fill:#3f8aad;fill-opacity:1;fill-rule:evenodd;stroke:#3f8aad;stroke-width:1pt;stroke-opacity:1"
         transform="matrix(0.4,0,0,0.4,2.96,0.4)"
         inkscape:connector-curvature="0" />
    </marker>
    <marker
       inkscape:stockid="Arrow1Mend"
       orient="auto"
       refY="0"
       refX="0"
       id="marker14963"
       style="overflow:visible">
      <path
         id="path14965"
         d="M 0,0 5,-5 -12.5,0 5,5 0,0 z"
         style="fill-rule:evenodd;stroke:#000000;stroke-width:1pt"
         transform="matrix(-0.4,0,0,-0.4,-4,0)"
         inkscape:connector-curvature="0" />
    </marker>
    <marker
       inkscape:stockid="DotM"
       orient="auto"
       refY="0"
       refX="0"
       id="marker14959"
       style="overflow:visible">
      <path
         id="path14961"
         d="m -2.5,-1 c 0,2.76 -2.24,5 -5,5 -2.76,0 -5,-2.24 -5,-5 0,-2.76 2.24,-5 5,-5 2.76,0 5,2.24 5,5 z"
         style="fill-rule:evenodd;stroke:#000000;stroke-width:1pt"
         transform="matrix(0.4,0,0,0.4,2.96,0.4)"
         inkscape:connector-curvature="0" />
    </marker>
    <marker
       inkscape:stockid="Arrow1Mend"
       orient="auto"
       refY="0"
       refX="0"
       id="marker14955"
       style="overflow:visible">
      <path
         id="path14957"
         d="M 0,0 5,-5 -12.5,0 5,5 0,0 z"
         style="fill-rule:evenodd;stroke:#000000;stroke-width:1pt"
         transform="matrix(-0.4,0,0,-0.4,-4,0)"
         inkscape:connector-curvature="0" />
    </marker>
    <marker
       inkscape:stockid="DotM"
       orient="auto"
       refY="0"
       refX="0"
       id="marker14951"
       style="overflow:visible">
      <path
         id="path14953"
         d="m -2.5,-1 c 0,2.76 -2.24,5 -5,5 -2.76,0 -5,-2.24 -5,-5 0,-2.76 2.24,-5 5,-5 2.76,0 5,2.24 5,5 z"
         style="fill-rule:evenodd;stroke:#000000;stroke-width:1pt"
         transform="matrix(0.4,0,0,0.4,2.96,0.4)"
         inkscape:connector-curvature="0" />
    </marker>
    <marker
       inkscape:stockid="Arrow1Mend"
       orient="auto"
       refY="0"
       refX="0"
       id="marker14947"
       style="overflow:visible">
      <path
         id="path14949"
         d="M 0,0 5,-5 -12.5,0 5,5 0,0 z"
         style="fill-rule:evenodd;stroke:#000000;stroke-width:1pt"
         transform="matrix(-0.4,0,0,-0.4,-4,0)"
         inkscape:connector-curvature="0" />
    </marker>
    <marker
       inkscape:stockid="DotM"
       orient="auto"
       refY="0"
       refX="0"
       id="marker14943"
       style="overflow:visible">
      <path
         id="path14945"
         d="m -2.5,-1 c 0,2.76 -2.24,5 -5,5 -2.76,0 -5,-2.24 -5,-5 0,-2.76 2.24,-5 5,-5 2.76,0 5,2.24 5,5 z"
         style="fill-rule:evenodd;stroke:#000000;stroke-width:1pt"
         transform="matrix(0.4,0,0,0.4,2.96,0.4)"
         inkscape:connector-curvature="0" />
    </marker>
    <marker
       inkscape:stockid="Arrow1Mend"
       orient="auto"
       refY="0"
       refX="0"
       id="marker14939"
       style="overflow:visible">
      <path
         id="path14941"
         d="M 0,0 5,-5 -12.5,0 5,5 0,0 z"
         style="fill-rule:evenodd;stroke:#000000;stroke-width:1pt"
         transform="matrix(-0.4,0,0,-0.4,-4,0)"
         inkscape:connector-curvature="0" />
    </marker>
    <marker
       inkscape:stockid="DotM"
       orient="auto"
       refY="0"
       refX="0"
       id="marker14935"
       style="overflow:visible">
      <path
         id="path14937"
         d="m -2.5,-1 c 0,2.76 -2.24,5 -5,5 -2.76,0 -5,-2.24 -5,-5 0,-2.76 2.24,-5 5,-5 2.76,0 5,2.24 5,5 z"
         style="fill-rule:evenodd;stroke:#000000;stroke-width:1pt"
         transform="matrix(0.4,0,0,0.4,2.96,0.4)"
         inkscape:connector-curvature="0" />
    </marker>
    <marker
       inkscape:stockid="Arrow1Mend"
       orient="auto"
       refY="0"
       refX="0"
       id="marker14931"
       style="overflow:visible">
      <path
         id="path14933"
         d="M 0,0 5,-5 -12.5,0 5,5 0,0 z"
         style="fill-rule:evenodd;stroke:#000000;stroke-width:1pt"
         transform="matrix(-0.4,0,0,-0.4,-4,0)"
         inkscape:connector-curvature="0" />
    </marker>
    <marker
       inkscape:stockid="DotM"
       orient="auto"
       refY="0"
       refX="0"
       id="marker14927"
       style="overflow:visible">
      <path
         id="path14929"
         d="m -2.5,-1 c 0,2.76 -2.24,5 -5,5 -2.76,0 -5,-2.24 -5,-5 0,-2.76 2.24,-5 5,-5 2.76,0 5,2.24 5,5 z"
         style="fill-rule:evenodd;stroke:#000000;stroke-width:1pt"
         transform="matrix(0.4,0,0,0.4,2.96,0.4)"
         inkscape:connector-curvature="0" />
    </marker>
    <marker
       inkscape:stockid="Arrow1Mend"
       orient="auto"
       refY="0"
       refX="0"
       id="marker14923"
       style="overflow:visible">
      <path
         id="path14925"
         d="M 0,0 5,-5 -12.5,0 5,5 0,0 z"
         style="fill-rule:evenodd;stroke:#000000;stroke-width:1pt"
         transform="matrix(-0.4,0,0,-0.4,-4,0)"
         inkscape:connector-curvature="0" />
    </marker>
    <marker
       inkscape:stockid="DotM"
       orient="auto"
       refY="0"
       refX="0"
       id="marker14919"
       style="overflow:visible">
      <path
         id="path14921"
         d="m -2.5,-1 c 0,2.76 -2.24,5 -5,5 -2.76,0 -5,-2.24 -5,-5 0,-2.76 2.24,-5 5,-5 2.76,0 5,2.24 5,5 z"
         style="fill-rule:evenodd;stroke:#000000;stroke-width:1pt"
         transform="matrix(0.4,0,0,0.4,2.96,0.4)"
         inkscape:connector-curvature="0" />
    </marker>
    <marker
       inkscape:stockid="Arrow1MendZ"
       orient="auto"
       refY="0"
       refX="0"
       id="marker14915"
       style="overflow:visible">
      <path
         id="path14917"
         d="M 0,0 5,-5 -12.5,0 5,5 0,0 z"
         style="fill:#ff021f;fill-opacity:1;fill-rule:evenodd;stroke:#ff021f;stroke-width:1pt;stroke-opacity:1"
         transform="matrix(-0.4,0,0,-0.4,-4,0)"
         inkscape:connector-curvature="0" />
    </marker>
    <marker
       inkscape:stockid="DotMF"
       orient="auto"
       refY="0"
       refX="0"
       id="marker14911"
       style="overflow:visible">
      <path
         id="path14913"
         d="m -2.5,-1 c 0,2.76 -2.24,5 -5,5 -2.76,0 -5,-2.24 -5,-5 0,-2.76 2.24,-5 5,-5 2.76,0 5,2.24 5,5 z"
         style="fill:#ff021f;fill-opacity:1;fill-rule:evenodd;stroke:#ff021f;stroke-width:1pt;stroke-opacity:1"
         transform="matrix(0.4,0,0,0.4,2.96,0.4)"
         inkscape:connector-curvature="0" />
    </marker>
    <marker
       inkscape:stockid="Arrow1MendP"
       orient="auto"
       refY="0"
       refX="0"
       id="marker14907"
       style="overflow:visible">
      <path
         id="path14909"
         d="M 0,0 5,-5 -12.5,0 5,5 0,0 z"
         style="fill:#ff021f;fill-opacity:1;fill-rule:evenodd;stroke:#ff021f;stroke-width:1pt;stroke-opacity:1"
         transform="matrix(-0.4,0,0,-0.4,-4,0)"
         inkscape:connector-curvature="0" />
    </marker>
    <marker
       inkscape:stockid="DotMq"
       orient="auto"
       refY="0"
       refX="0"
       id="marker14903"
       style="overflow:visible">
      <path
         id="path14905"
         d="m -2.5,-1 c 0,2.76 -2.24,5 -5,5 -2.76,0 -5,-2.24 -5,-5 0,-2.76 2.24,-5 5,-5 2.76,0 5,2.24 5,5 z"
         style="fill:#ff021f;fill-opacity:1;fill-rule:evenodd;stroke:#ff021f;stroke-width:1pt;stroke-opacity:1"
         transform="matrix(0.4,0,0,0.4,2.96,0.4)"
         inkscape:connector-curvature="0" />
    </marker>
    <marker
       inkscape:stockid="Arrow1MendY"
       orient="auto"
       refY="0"
       refX="0"
       id="marker14899"
       style="overflow:visible">
      <path
         id="path14901"
         d="M 0,0 5,-5 -12.5,0 5,5 0,0 z"
         style="fill:#ff021f;fill-opacity:1;fill-rule:evenodd;stroke:#ff021f;stroke-width:1pt;stroke-opacity:1"
         transform="matrix(-0.4,0,0,-0.4,-4,0)"
         inkscape:connector-curvature="0" />
    </marker>
    <marker
       inkscape:stockid="DotMk"
       orient="auto"
       refY="0"
       refX="0"
       id="marker14895"
       style="overflow:visible">
      <path
         id="path14897"
         d="m -2.5,-1 c 0,2.76 -2.24,5 -5,5 -2.76,0 -5,-2.24 -5,-5 0,-2.76 2.24,-5 5,-5 2.76,0 5,2.24 5,5 z"
         style="fill:#ff021f;fill-opacity:1;fill-rule:evenodd;stroke:#ff021f;stroke-width:1pt;stroke-opacity:1"
         transform="matrix(0.4,0,0,0.4,2.96,0.4)"
         inkscape:connector-curvature="0" />
    </marker>
    <marker
       inkscape:stockid="Arrow1Mend"
       orient="auto"
       refY="0"
       refX="0"
       id="marker14891"
       style="overflow:visible">
      <path
         id="path14893"
         d="M 0,0 5,-5 -12.5,0 5,5 0,0 z"
         style="fill-rule:evenodd;stroke:#000000;stroke-width:1pt"
         transform="matrix(-0.4,0,0,-0.4,-4,0)"
         inkscape:connector-curvature="0" />
    </marker>
    <marker
       inkscape:stockid="DotM"
       orient="auto"
       refY="0"
       refX="0"
       id="marker14887"
       style="overflow:visible">
      <path
         id="path14889"
         d="m -2.5,-1 c 0,2.76 -2.24,5 -5,5 -2.76,0 -5,-2.24 -5,-5 0,-2.76 2.24,-5 5,-5 2.76,0 5,2.24 5,5 z"
         style="fill-rule:evenodd;stroke:#000000;stroke-width:1pt"
         transform="matrix(0.4,0,0,0.4,2.96,0.4)"
         inkscape:connector-curvature="0" />
    </marker>
    <marker
       inkscape:stockid="Arrow1Mend"
       orient="auto"
       refY="0"
       refX="0"
       id="marker14883"
       style="overflow:visible">
      <path
         id="path14885"
         d="M 0,0 5,-5 -12.5,0 5,5 0,0 z"
         style="fill-rule:evenodd;stroke:#000000;stroke-width:1pt"
         transform="matrix(-0.4,0,0,-0.4,-4,0)"
         inkscape:connector-curvature="0" />
    </marker>
    <marker
       inkscape:stockid="DotM"
       orient="auto"
       refY="0"
       refX="0"
       id="marker14879"
       style="overflow:visible">
      <path
         id="path14881"
         d="m -2.5,-1 c 0,2.76 -2.24,5 -5,5 -2.76,0 -5,-2.24 -5,-5 0,-2.76 2.24,-5 5,-5 2.76,0 5,2.24 5,5 z"
         style="fill-rule:evenodd;stroke:#000000;stroke-width:1pt"
         transform="matrix(0.4,0,0,0.4,2.96,0.4)"
         inkscape:connector-curvature="0" />
    </marker>
    <marker
       inkscape:stockid="Arrow1Mend"
       orient="auto"
       refY="0"
       refX="0"
       id="marker14875"
       style="overflow:visible">
      <path
         id="path14877"
         d="M 0,0 5,-5 -12.5,0 5,5 0,0 z"
         style="fill-rule:evenodd;stroke:#000000;stroke-width:1pt"
         transform="matrix(-0.4,0,0,-0.4,-4,0)"
         inkscape:connector-curvature="0" />
    </marker>
    <marker
       inkscape:stockid="DotM"
       orient="auto"
       refY="0"
       refX="0"
       id="marker14871"
       style="overflow:visible">
      <path
         id="path14873"
         d="m -2.5,-1 c 0,2.76 -2.24,5 -5,5 -2.76,0 -5,-2.24 -5,-5 0,-2.76 2.24,-5 5,-5 2.76,0 5,2.24 5,5 z"
         style="fill-rule:evenodd;stroke:#000000;stroke-width:1pt"
         transform="matrix(0.4,0,0,0.4,2.96,0.4)"
         inkscape:connector-curvature="0" />
    </marker>
    <marker
       inkscape:stockid="Arrow1Mend"
       orient="auto"
       refY="0"
       refX="0"
       id="marker14867"
       style="overflow:visible">
      <path
         id="path14869"
         d="M 0,0 5,-5 -12.5,0 5,5 0,0 z"
         style="fill-rule:evenodd;stroke:#000000;stroke-width:1pt"
         transform="matrix(-0.4,0,0,-0.4,-4,0)"
         inkscape:connector-curvature="0" />
    </marker>
    <marker
       inkscape:stockid="DotM"
       orient="auto"
       refY="0"
       refX="0"
       id="marker14863"
       style="overflow:visible">
      <path
         id="path14865"
         d="m -2.5,-1 c 0,2.76 -2.24,5 -5,5 -2.76,0 -5,-2.24 -5,-5 0,-2.76 2.24,-5 5,-5 2.76,0 5,2.24 5,5 z"
         style="fill-rule:evenodd;stroke:#000000;stroke-width:1pt"
         transform="matrix(0.4,0,0,0.4,2.96,0.4)"
         inkscape:connector-curvature="0" />
    </marker>
    <marker
       inkscape:stockid="Arrow1Mend"
       orient="auto"
       refY="0"
       refX="0"
       id="marker14859"
       style="overflow:visible">
      <path
         id="path14861"
         d="M 0,0 5,-5 -12.5,0 5,5 0,0 z"
         style="fill-rule:evenodd;stroke:#000000;stroke-width:1pt"
         transform="matrix(-0.4,0,0,-0.4,-4,0)"
         inkscape:connector-curvature="0" />
    </marker>
    <marker
       inkscape:stockid="DotM"
       orient="auto"
       refY="0"
       refX="0"
       id="marker14855"
       style="overflow:visible">
      <path
         id="path14857"
         d="m -2.5,-1 c 0,2.76 -2.24,5 -5,5 -2.76,0 -5,-2.24 -5,-5 0,-2.76 2.24,-5 5,-5 2.76,0 5,2.24 5,5 z"
         style="fill-rule:evenodd;stroke:#000000;stroke-width:1pt"
         transform="matrix(0.4,0,0,0.4,2.96,0.4)"
         inkscape:connector-curvature="0" />
    </marker>
    <marker
       inkscape:stockid="Arrow1Mend"
       orient="auto"
       refY="0"
       refX="0"
       id="marker14851"
       style="overflow:visible">
      <path
         id="path14853"
         d="M 0,0 5,-5 -12.5,0 5,5 0,0 z"
         style="fill-rule:evenodd;stroke:#000000;stroke-width:1pt"
         transform="matrix(-0.4,0,0,-0.4,-4,0)"
         inkscape:connector-curvature="0" />
    </marker>
    <marker
       inkscape:stockid="DotM"
       orient="auto"
       refY="0"
       refX="0"
       id="marker14847"
       style="overflow:visible">
      <path
         id="path14849"
         d="m -2.5,-1 c 0,2.76 -2.24,5 -5,5 -2.76,0 -5,-2.24 -5,-5 0,-2.76 2.24,-5 5,-5 2.76,0 5,2.24 5,5 z"
         style="fill-rule:evenodd;stroke:#000000;stroke-width:1pt"
         transform="matrix(0.4,0,0,0.4,2.96,0.4)"
         inkscape:connector-curvature="0" />
    </marker>
    <linearGradient
       id="linearGradient6155">
      <stop
         style="stop-color:#fefcfc;stop-opacity:0.35135135;"
         offset="0"
         id="stop6157" />
      <stop
         style="stop-color:#cacaca;stop-opacity:0.2072072;"
         offset="1"
         id="stop6159" />
    </linearGradient>
    <linearGradient
       id="linearGradient6165">
      <stop
         style="stop-color:#777777;stop-opacity:0.12612613;"
         offset="0"
         id="stop6167" />
      <stop
         id="stop6177"
         offset="1"
         style="stop-color:#454545;stop-opacity:0.23423423;" />
    </linearGradient>
    <marker
       inkscape:stockid="Arrow1Mend"
       orient="auto"
       refY="0"
       refX="0"
       id="marker14835"
       style="overflow:visible">
      <path
         id="path14837"
         d="M 0,0 5,-5 -12.5,0 5,5 0,0 z"
         style="fill-rule:evenodd;stroke:#000000;stroke-width:1pt"
         transform="matrix(-0.4,0,0,-0.4,-4,0)"
         inkscape:connector-curvature="0" />
    </marker>
    <marker
       inkscape:stockid="DotM"
       orient="auto"
       refY="0"
       refX="0"
       id="marker14831"
       style="overflow:visible">
      <path
         id="path14833"
         d="m -2.5,-1 c 0,2.76 -2.24,5 -5,5 -2.76,0 -5,-2.24 -5,-5 0,-2.76 2.24,-5 5,-5 2.76,0 5,2.24 5,5 z"
         style="fill-rule:evenodd;stroke:#000000;stroke-width:1pt"
         transform="matrix(0.4,0,0,0.4,2.96,0.4)"
         inkscape:connector-curvature="0" />
    </marker>
    <marker
       inkscape:stockid="Arrow1Mend"
       orient="auto"
       refY="0"
       refX="0"
       id="marker14827"
       style="overflow:visible">
      <path
         id="path14829"
         d="M 0,0 5,-5 -12.5,0 5,5 0,0 z"
         style="fill-rule:evenodd;stroke:#000000;stroke-width:1pt"
         transform="matrix(-0.4,0,0,-0.4,-4,0)"
         inkscape:connector-curvature="0" />
    </marker>
    <marker
       inkscape:stockid="DotM"
       orient="auto"
       refY="0"
       refX="0"
       id="marker14823"
       style="overflow:visible">
      <path
         id="path14825"
         d="m -2.5,-1 c 0,2.76 -2.24,5 -5,5 -2.76,0 -5,-2.24 -5,-5 0,-2.76 2.24,-5 5,-5 2.76,0 5,2.24 5,5 z"
         style="fill-rule:evenodd;stroke:#000000;stroke-width:1pt"
         transform="matrix(0.4,0,0,0.4,2.96,0.4)"
         inkscape:connector-curvature="0" />
    </marker>
    <marker
       inkscape:stockid="Arrow1Mend"
       orient="auto"
       refY="0"
       refX="0"
       id="marker14819"
       style="overflow:visible">
      <path
         id="path14821"
         d="M 0,0 5,-5 -12.5,0 5,5 0,0 z"
         style="fill-rule:evenodd;stroke:#000000;stroke-width:1pt"
         transform="matrix(-0.4,0,0,-0.4,-4,0)"
         inkscape:connector-curvature="0" />
    </marker>
    <marker
       inkscape:stockid="DotM"
       orient="auto"
       refY="0"
       refX="0"
       id="marker14815"
       style="overflow:visible">
      <path
         id="path14817"
         d="m -2.5,-1 c 0,2.76 -2.24,5 -5,5 -2.76,0 -5,-2.24 -5,-5 0,-2.76 2.24,-5 5,-5 2.76,0 5,2.24 5,5 z"
         style="fill-rule:evenodd;stroke:#000000;stroke-width:1pt"
         transform="matrix(0.4,0,0,0.4,2.96,0.4)"
         inkscape:connector-curvature="0" />
    </marker>
    <marker
       inkscape:stockid="Arrow1Mend"
       orient="auto"
       refY="0"
       refX="0"
       id="marker14811"
       style="overflow:visible">
      <path
         id="path14813"
         d="M 0,0 5,-5 -12.5,0 5,5 0,0 z"
         style="fill-rule:evenodd;stroke:#000000;stroke-width:1pt"
         transform="matrix(-0.4,0,0,-0.4,-4,0)"
         inkscape:connector-curvature="0" />
    </marker>
    <marker
       inkscape:stockid="DotM"
       orient="auto"
       refY="0"
       refX="0"
       id="marker14807"
       style="overflow:visible">
      <path
         id="path14809"
         d="m -2.5,-1 c 0,2.76 -2.24,5 -5,5 -2.76,0 -5,-2.24 -5,-5 0,-2.76 2.24,-5 5,-5 2.76,0 5,2.24 5,5 z"
         style="fill-rule:evenodd;stroke:#000000;stroke-width:1pt"
         transform="matrix(0.4,0,0,0.4,2.96,0.4)"
         inkscape:connector-curvature="0" />
    </marker>
    <marker
       inkscape:stockid="Arrow1Mend"
       orient="auto"
       refY="0"
       refX="0"
       id="marker14803"
       style="overflow:visible">
      <path
         id="path14805"
         d="M 0,0 5,-5 -12.5,0 5,5 0,0 z"
         style="fill-rule:evenodd;stroke:#000000;stroke-width:1pt"
         transform="matrix(-0.4,0,0,-0.4,-4,0)"
         inkscape:connector-curvature="0" />
    </marker>
    <marker
       inkscape:stockid="DotM"
       orient="auto"
       refY="0"
       refX="0"
       id="marker14799"
       style="overflow:visible">
      <path
         id="path14801"
         d="m -2.5,-1 c 0,2.76 -2.24,5 -5,5 -2.76,0 -5,-2.24 -5,-5 0,-2.76 2.24,-5 5,-5 2.76,0 5,2.24 5,5 z"
         style="fill-rule:evenodd;stroke:#000000;stroke-width:1pt"
         transform="matrix(0.4,0,0,0.4,2.96,0.4)"
         inkscape:connector-curvature="0" />
    </marker>
    <marker
       inkscape:stockid="Arrow1Mend"
       orient="auto"
       refY="0"
       refX="0"
       id="Arrow1Mend"
       style="overflow:visible">
      <path
         id="path4084"
         d="M 0,0 5,-5 -12.5,0 5,5 0,0 z"
         style="fill-rule:evenodd;stroke:#000000;stroke-width:1pt"
         transform="matrix(-0.4,0,0,-0.4,-4,0)"
         inkscape:connector-curvature="0" />
    </marker>
    <marker
       inkscape:stockid="DotM"
       orient="auto"
       refY="0"
       refX="0"
       id="DotM"
       style="overflow:visible">
      <path
         id="path4139"
         d="m -2.5,-1 c 0,2.76 -2.24,5 -5,5 -2.76,0 -5,-2.24 -5,-5 0,-2.76 2.24,-5 5,-5 2.76,0 5,2.24 5,5 z"
         style="fill-rule:evenodd;stroke:#000000;stroke-width:1pt"
         transform="matrix(0.4,0,0,0.4,2.96,0.4)"
         inkscape:connector-curvature="0" />
    </marker>
    <marker
       inkscape:stockid="Arrow1MendZ"
       orient="auto"
       refY="0"
       refX="0"
       id="Arrow1MendZ"
       style="overflow:visible">
      <path
         id="path7876"
         d="M 0,0 5,-5 -12.5,0 5,5 0,0 z"
         style="fill:#ff021f;fill-opacity:1;fill-rule:evenodd;stroke:#ff021f;stroke-width:1pt;stroke-opacity:1"
         transform="matrix(-0.4,0,0,-0.4,-4,0)"
         inkscape:connector-curvature="0" />
    </marker>
    <marker
       inkscape:stockid="DotMF"
       orient="auto"
       refY="0"
       refX="0"
       id="DotMF"
       style="overflow:visible">
      <path
         id="path7873"
         d="m -2.5,-1 c 0,2.76 -2.24,5 -5,5 -2.76,0 -5,-2.24 -5,-5 0,-2.76 2.24,-5 5,-5 2.76,0 5,2.24 5,5 z"
         style="fill:#ff021f;fill-opacity:1;fill-rule:evenodd;stroke:#ff021f;stroke-width:1pt;stroke-opacity:1"
         transform="matrix(0.4,0,0,0.4,2.96,0.4)"
         inkscape:connector-curvature="0" />
    </marker>
    <marker
       inkscape:stockid="Arrow1MendP"
       orient="auto"
       refY="0"
       refX="0"
       id="Arrow1MendP"
       style="overflow:visible">
      <path
         id="path7446"
         d="M 0,0 5,-5 -12.5,0 5,5 0,0 z"
         style="fill:#ff021f;fill-opacity:1;fill-rule:evenodd;stroke:#ff021f;stroke-width:1pt;stroke-opacity:1"
         transform="matrix(-0.4,0,0,-0.4,-4,0)"
         inkscape:connector-curvature="0" />
    </marker>
    <marker
       inkscape:stockid="DotMq"
       orient="auto"
       refY="0"
       refX="0"
       id="DotMq"
       style="overflow:visible">
      <path
         id="path7443"
         d="m -2.5,-1 c 0,2.76 -2.24,5 -5,5 -2.76,0 -5,-2.24 -5,-5 0,-2.76 2.24,-5 5,-5 2.76,0 5,2.24 5,5 z"
         style="fill:#ff021f;fill-opacity:1;fill-rule:evenodd;stroke:#ff021f;stroke-width:1pt;stroke-opacity:1"
         transform="matrix(0.4,0,0,0.4,2.96,0.4)"
         inkscape:connector-curvature="0" />
    </marker>
    <marker
       inkscape:stockid="Arrow1MendY"
       orient="auto"
       refY="0"
       refX="0"
       id="Arrow1MendY"
       style="overflow:visible">
      <path
         id="path8314"
         d="M 0,0 5,-5 -12.5,0 5,5 0,0 z"
         style="fill:#ff021f;fill-opacity:1;fill-rule:evenodd;stroke:#ff021f;stroke-width:1pt;stroke-opacity:1"
         transform="matrix(-0.4,0,0,-0.4,-4,0)"
         inkscape:connector-curvature="0" />
    </marker>
    <marker
       inkscape:stockid="DotMk"
       orient="auto"
       refY="0"
       refX="0"
       id="DotMk"
       style="overflow:visible">
      <path
         id="path8311"
         d="m -2.5,-1 c 0,2.76 -2.24,5 -5,5 -2.76,0 -5,-2.24 -5,-5 0,-2.76 2.24,-5 5,-5 2.76,0 5,2.24 5,5 z"
         style="fill:#ff021f;fill-opacity:1;fill-rule:evenodd;stroke:#ff021f;stroke-width:1pt;stroke-opacity:1"
         transform="matrix(0.4,0,0,0.4,2.96,0.4)"
         inkscape:connector-curvature="0" />
    </marker>
    <marker
       inkscape:stockid="Arrow1LendgOA"
       orient="auto"
       refY="0"
       refX="0"
       id="Arrow1LendgOA"
       style="overflow:visible">
      <path
         id="path14229"
         d="M 0,0 5,-5 -12.5,0 5,5 0,0 z"
         style="fill:#fd0000;fill-opacity:1;fill-rule:evenodd;stroke:#fd0000;stroke-width:1pt;stroke-opacity:1"
         transform="matrix(-0.8,0,0,-0.8,-10,0)"
         inkscape:connector-curvature="0" />
    </marker>
    <marker
       inkscape:stockid="Arrow1LendgiM"
       orient="auto"
       refY="0"
       refX="0"
       id="Arrow1LendgiM"
       style="overflow:visible">
      <path
         id="path14232"
         d="M 0,0 5,-5 -12.5,0 5,5 0,0 z"
         style="fill:#fd0000;fill-opacity:1;fill-rule:evenodd;stroke:#fd0000;stroke-width:1pt;stroke-opacity:1"
         transform="matrix(-0.8,0,0,-0.8,-10,0)"
         inkscape:connector-curvature="0" />
    </marker>
    <marker
       inkscape:stockid="Arrow1LendgKL"
       orient="auto"
       refY="0"
       refX="0"
       id="Arrow1LendgKL"
       style="overflow:visible">
      <path
         id="path14238"
         d="M 0,0 5,-5 -12.5,0 5,5 0,0 z"
         style="fill:#fd0000;fill-opacity:1;fill-rule:evenodd;stroke:#fd0000;stroke-width:1pt;stroke-opacity:1"
         transform="matrix(-0.8,0,0,-0.8,-10,0)"
         inkscape:connector-curvature="0" />
    </marker>
    <marker
       inkscape:stockid="Arrow1Lendgi7"
       orient="auto"
       refY="0"
       refX="0"
       id="Arrow1Lendgi7"
       style="overflow:visible">
      <path
         id="path14235"
         d="M 0,0 5,-5 -12.5,0 5,5 0,0 z"
         style="fill:#fd0000;fill-opacity:1;fill-rule:evenodd;stroke:#fd0000;stroke-width:1pt;stroke-opacity:1"
         transform="matrix(-0.8,0,0,-0.8,-10,0)"
         inkscape:connector-curvature="0" />
    </marker>
    <marker
       inkscape:stockid="Arrow1Send"
       orient="auto"
       refY="0.0"
       refX="0.0"
       id="Arrow1Send"
       style="overflow:visible;">
      <path
         id="path5384"
         d="M 0.0,0.0 L 5.0,-5.0 L -12.5,0.0 L 5.0,5.0 L 0.0,0.0 z "
         style="fill-rule:evenodd;stroke:#000000;stroke-width:1.0pt;"
         transform="scale(0.2) rotate(180) translate(6,0)" />
    </marker>
    <marker
       inkscape:stockid="Arrow1Sstart"
       orient="auto"
       refY="0.0"
       refX="0.0"
       id="Arrow1Sstart"
       style="overflow:visible">
      <path
         id="path5381"
         d="M 0.0,0.0 L 5.0,-5.0 L -12.5,0.0 L 5.0,5.0 L 0.0,0.0 z "
         style="fill-rule:evenodd;stroke:#000000;stroke-width:1.0pt"
         transform="scale(0.2) translate(6,0)" />
    </marker>
    <inkscape:path-effect
       is_visible="true"
       id="path-effect9679"
       effect="spiro" />
    <linearGradient
       id="linearGradient9734">
      <stop
         id="stop9736"
         offset="0"
         style="stop-color:#838383;stop-opacity:0.2972973;" />
      <stop
         id="stop9738"
         offset="1"
         style="stop-color:#e6e6e6;stop-opacity:0.3063063;" />
    </linearGradient>
    <inkscape:path-effect
       is_visible="true"
       id="path-effect9744"
       effect="spiro" />
    <linearGradient
       inkscape:collect="always"
       xlink:href="#linearGradient9734"
       id="linearGradient3870"
       gradientUnits="userSpaceOnUse"
       gradientTransform="translate(-262.48855,195.60722)"
       x1="409.99866"
       y1="236.90143"
       x2="456.64636"
       y2="122.24913" />
    <marker
       inkscape:stockid="DotMqK"
       orient="auto"
       refY="0"
       refX="0"
       id="DotMqK-3"
       style="overflow:visible">
      <path
         id="path4960-2"
         d="m -2.5,-1 c 0,2.76 -2.24,5 -5,5 -2.76,0 -5,-2.24 -5,-5 0,-2.76 2.24,-5 5,-5 2.76,0 5,2.24 5,5 z"
         style="fill:#195de8;fill-opacity:1;fill-rule:evenodd;stroke:#195de8;stroke-width:1pt;stroke-opacity:1"
         transform="matrix(0.4,0,0,0.4,2.96,0.4)"
         inkscape:connector-curvature="0" />
    </marker>
    <marker
       inkscape:stockid="Arrow1MendPY"
       orient="auto"
       refY="0"
       refX="0"
       id="Arrow1MendPY-5"
       style="overflow:visible">
      <path
         id="path4963-3"
         d="M 0,0 5,-5 -12.5,0 5,5 0,0 z"
         style="fill:#195de8;fill-opacity:1;fill-rule:evenodd;stroke:#195de8;stroke-width:1pt;stroke-opacity:1"
         transform="matrix(-0.4,0,0,-0.4,-4,0)"
         inkscape:connector-curvature="0" />
    </marker>
    <marker
       inkscape:stockid="DotMqK"
       orient="auto"
       refY="0"
       refX="0"
       id="DotMqK-32"
       style="overflow:visible">
      <path
         id="path4960-7"
         d="m -2.5,-1 c 0,2.76 -2.24,5 -5,5 -2.76,0 -5,-2.24 -5,-5 0,-2.76 2.24,-5 5,-5 2.76,0 5,2.24 5,5 z"
         style="fill:#195de8;fill-opacity:1;fill-rule:evenodd;stroke:#195de8;stroke-width:1pt;stroke-opacity:1"
         transform="matrix(0.4,0,0,0.4,2.96,0.4)"
         inkscape:connector-curvature="0" />
    </marker>
    <marker
       inkscape:stockid="Arrow1MendPY"
       orient="auto"
       refY="0"
       refX="0"
       id="Arrow1MendPY-0"
       style="overflow:visible">
      <path
         id="path4963-6"
         d="M 0,0 5,-5 -12.5,0 5,5 0,0 z"
         style="fill:#195de8;fill-opacity:1;fill-rule:evenodd;stroke:#195de8;stroke-width:1pt;stroke-opacity:1"
         transform="matrix(-0.4,0,0,-0.4,-4,0)"
         inkscape:connector-curvature="0" />
    </marker>
    <marker
       inkscape:stockid="DotMqK"
       orient="auto"
       refY="0"
       refX="0"
       id="DotMqK-0"
       style="overflow:visible">
      <path
         id="path4960-11"
         d="m -2.5,-1 c 0,2.76 -2.24,5 -5,5 -2.76,0 -5,-2.24 -5,-5 0,-2.76 2.24,-5 5,-5 2.76,0 5,2.24 5,5 z"
         style="fill:#195de8;fill-opacity:1;fill-rule:evenodd;stroke:#195de8;stroke-width:1pt;stroke-opacity:1"
         transform="matrix(0.4,0,0,0.4,2.96,0.4)"
         inkscape:connector-curvature="0" />
    </marker>
    <marker
       inkscape:stockid="Arrow1MendPY"
       orient="auto"
       refY="0"
       refX="0"
       id="Arrow1MendPY-9"
       style="overflow:visible">
      <path
         id="path4963-5"
         d="M 0,0 5,-5 -12.5,0 5,5 0,0 z"
         style="fill:#195de8;fill-opacity:1;fill-rule:evenodd;stroke:#195de8;stroke-width:1pt;stroke-opacity:1"
         transform="matrix(-0.4,0,0,-0.4,-4,0)"
         inkscape:connector-curvature="0" />
    </marker>
    <marker
       inkscape:stockid="Arrow1MendPLl"
       orient="auto"
       refY="0"
       refX="0"
       id="Arrow1MendPLl-6"
       style="overflow:visible">
      <path
         id="path7811-3"
         d="M 0,0 5,-5 -12.5,0 5,5 0,0 z"
         style="fill:#8e19e8;fill-opacity:1;fill-rule:evenodd;stroke:#8e19e8;stroke-width:1pt;stroke-opacity:1"
         transform="matrix(-0.4,0,0,-0.4,-4,0)"
         inkscape:connector-curvature="0" />
    </marker>
    <marker
       inkscape:stockid="Arrow1MendPY"
       orient="auto"
       refY="0"
       refX="0"
       id="Arrow1MendPY-52"
       style="overflow:visible">
      <path
         id="path4963-9"
         d="M 0,0 5,-5 -12.5,0 5,5 0,0 z"
         style="fill:#195de8;fill-opacity:1;fill-rule:evenodd;stroke:#195de8;stroke-width:1pt;stroke-opacity:1"
         transform="matrix(-0.4,0,0,-0.4,-4,0)"
         inkscape:connector-curvature="0" />
    </marker>
    <marker
       inkscape:stockid="Arrow1MendPY"
       orient="auto"
       refY="0"
       refX="0"
       id="Arrow1MendPY-2"
       style="overflow:visible">
      <path
         id="path4963-61"
         d="M 0,0 5,-5 -12.5,0 5,5 0,0 z"
         style="fill:#195de8;fill-opacity:1;fill-rule:evenodd;stroke:#195de8;stroke-width:1pt;stroke-opacity:1"
         transform="matrix(-0.4,0,0,-0.4,-4,0)"
         inkscape:connector-curvature="0" />
    </marker>
  </defs>
  <sodipodi:namedview
     id="base"
     pagecolor="#ffffff"
     bordercolor="#666666"
     borderopacity="1.0"
     inkscape:pageopacity="0.0"
     inkscape:pageshadow="2"
     inkscape:zoom="2.3618087"
     inkscape:cx="192.36134"
     inkscape:cy="667.70407"
     inkscape:document-units="px"
     inkscape:current-layer="layer1"
     showgrid="false"
     inkscape:window-width="1366"
     inkscape:window-height="745"
     inkscape:window-x="-8"
     inkscape:window-y="-8"
     inkscape:window-maximized="1" />
  <metadata
     id="metadata7">
    <rdf:RDF>
      <cc:Work
         rdf:about="">
        <dc:format>image/svg+xml</dc:format>
        <dc:type
           rdf:resource="http://purl.org/dc/dcmitype/StillImage" />
        <dc:title></dc:title>
      </cc:Work>
    </rdf:RDF>
  </metadata>
  <g
     inkscape:label="Layer 1"
     inkscape:groupmode="layer"
     id="layer1" />
</svg>
